# xmcd
#
# Track frame offsets:
#	182
#	10050
#	25722
#	38755
#	52295
#	64635
#	69832
#	82612
#	107427
#	116890
#	128415
#	140580
#	153557
#	168930
#	181390
#	193540
#	207752
#	223830
#	237600
#	243675
#	256355
#	266637
#
# Disc length: 3774 seconds
#
# Revision: 2
# Processed by: cddbd v1.5.1PL0 Copyright (c) Steve Scherf et al.
# Submitted via: dBpowerAMP V4.0
#
DISCID=340ebc16
DTITLE=Spiritual - Les Plus Beaux Negro Spirituals - CD 1
DYEAR=1991
DGENRE=Gospel
TTITLE0=Joshua Fit The Battle
TTITLE1=Go Where I Send Thee
TTITLE2=Deep River
TTITLE3=Take The Lord With You
TTITLE4=Great Day In December
TTITLE5=Baby Born Today
TTITLE6=Sometimes
TTITLE7=Didn't It Rain?
TTITLE8=Poor Little Jesus Boy
TTITLE9=My Rock
TTITLE10=Heaven Is My Home
TTITLE11=Hand Me Down
TTITLE12=God Put A Rainbow In The Clouds
TTITLE13=Rise Up Sheperd And Follow
TTITLE14=If Anybody Ask You Who I Am
TTITLE15=Seek, Seek
TTITLE16=At The Cross
TTITLE17=I'll Overcome
TTITLE18=Auction Block
TTITLE19=Standin' In The Need Of Prayer
TTITLE20=Christ Is Born
TTITLE21=Swing Low, Sweet Chariot
EXTD=
EXTT0=
EXTT1=
EXTT2=
EXTT3=
EXTT4=
EXTT5=
EXTT6=
EXTT7=
EXTT8=
EXTT9=
EXTT10=
EXTT11=
EXTT12=
EXTT13=
EXTT14=
EXTT15=
EXTT16=
EXTT17=
EXTT18=
EXTT19=
EXTT20=
EXTT21=
PLAYORDER=
